<svg width="21" height="20" viewBox="0 0 21 20" fill="none" xmlns="http://www.w3.org/2000/svg">
<path fill-rule="evenodd" clip-rule="evenodd" d="M6.89038 0H14.3904C17.8417 0 20.6404 2.79875 20.6404 6.25V13.75C20.6404 17.2013 17.8417 20 14.3904 20H6.89038C3.43913 20 0.640381 17.2013 0.640381 13.75V6.25C0.640381 2.79875 3.43913 0 6.89038 0ZM14.3904 18.125C16.8029 18.125 18.7654 16.1625 18.7654 13.75V6.25C18.7654 3.8375 16.8029 1.875 14.3904 1.875H6.89038C4.47788 1.875 2.51538 3.8375 2.51538 6.25V13.75C2.51538 16.1625 4.47788 18.125 6.89038 18.125H14.3904Z" fill="#184043"/>
<path fill-rule="evenodd" clip-rule="evenodd" d="M5.64038 10C5.64038 7.23875 7.87913 5 10.6404 5C13.4017 5 15.6404 7.23875 15.6404 10C15.6404 12.7613 13.4017 15 10.6404 15C7.87913 15 5.64038 12.7613 5.64038 10ZM7.51538 10C7.51538 11.7225 8.91788 13.125 10.6404 13.125C12.3629 13.125 13.7654 11.7225 13.7654 10C13.7654 8.27625 12.3629 6.875 10.6404 6.875C8.91788 6.875 7.51538 8.27625 7.51538 10Z" fill="#184043"/>
<path d="M16.0154 5.29124C16.3833 5.29124 16.6816 4.99295 16.6816 4.62499C16.6816 4.25703 16.3833 3.95874 16.0154 3.95874C15.6474 3.95874 15.3491 4.25703 15.3491 4.62499C15.3491 4.99295 15.6474 5.29124 16.0154 5.29124Z" fill="#184043"/>
</svg>
