<svg width="21" height="16" viewBox="0 0 21 16" fill="none" xmlns="http://www.w3.org/2000/svg">
<path d="M20.196 1.881C19.4687 2.2 18.6938 2.41144 17.886 2.51411C18.7171 2.01789 19.3514 1.23811 19.6496 0.298222C18.8747 0.760222 18.0192 1.08656 17.1074 1.26867C16.3716 0.485222 15.323 0 14.179 0C11.9594 0 10.1725 1.80156 10.1725 4.01011C10.1725 4.32789 10.1994 4.63344 10.2654 4.92433C6.93238 4.76178 3.98316 3.16433 2.00194 0.730889C1.65605 1.331 1.45316 2.01789 1.45316 2.75733C1.45316 4.14578 2.16816 5.37656 3.23394 6.08911C2.58982 6.07689 1.95794 5.88989 1.4226 5.59533C1.4226 5.60756 1.4226 5.62344 1.4226 5.63933C1.4226 7.58756 2.81227 9.20578 4.6346 9.57856C4.30827 9.66778 3.9526 9.71056 3.58349 9.71056C3.32682 9.71056 3.06771 9.69589 2.82449 9.64211C3.34394 11.2298 4.81794 12.397 6.5706 12.4349C5.2066 13.5019 3.47471 14.1448 1.59982 14.1448C1.27105 14.1448 0.955714 14.1301 0.640381 14.0898C2.41627 15.235 4.52094 15.8889 6.7906 15.8889C14.168 15.8889 18.2013 9.77778 18.2013 4.48067C18.2013 4.30344 18.1952 4.13233 18.1866 3.96244C18.9823 3.39778 19.6508 2.69256 20.196 1.881Z" fill="#184043"/>
</svg>
